<mxfile host="app.diagrams.net" modified="2023-10-22T19:24:54.361Z" agent="Mozilla/5.0 (Windows NT 10.0; Win64; x64) AppleWebKit/537.36 (KHTML, like Gecko) Chrome/116.0.0.0 Safari/537.36 OPR/102.0.0.0" etag="5o9PglTtalzzzLrZ8gRx" version="22.0.6" type="github">
  <diagram name="Página-1" id="GrdWI4Xex0_40aSLjNx8">
    <mxGraphModel dx="2049" dy="962" grid="0" gridSize="10" guides="1" tooltips="1" connect="1" arrows="1" fold="1" page="1" pageScale="1" pageWidth="1100" pageHeight="850" math="0" shadow="0">
      <root>
        <mxCell id="0" />
        <mxCell id="1" parent="0" />
        <mxCell id="1cbcMMZBRTgS8novLpQM-2" value="Ingresa a la pagina: www.GYMBRO.com" style="ellipse;whiteSpace=wrap;html=1;" vertex="1" parent="1">
          <mxGeometry x="486" y="82" width="160" height="80" as="geometry" />
        </mxCell>
        <mxCell id="1cbcMMZBRTgS8novLpQM-3" value="Oprime el botón &quot;Registrar&quot;" style="ellipse;whiteSpace=wrap;html=1;" vertex="1" parent="1">
          <mxGeometry x="486" y="202" width="160" height="80" as="geometry" />
        </mxCell>
        <mxCell id="1cbcMMZBRTgS8novLpQM-5" value="Muestra el&amp;nbsp; formulario de registro&amp;nbsp;" style="ellipse;whiteSpace=wrap;html=1;" vertex="1" parent="1">
          <mxGeometry x="486" y="322" width="160" height="80" as="geometry" />
        </mxCell>
        <mxCell id="1cbcMMZBRTgS8novLpQM-7" value="El usuario tendrá que completar el formulario con sus datos personales&amp;nbsp;" style="ellipse;whiteSpace=wrap;html=1;" vertex="1" parent="1">
          <mxGeometry x="486" y="442" width="160" height="80" as="geometry" />
        </mxCell>
        <mxCell id="1cbcMMZBRTgS8novLpQM-9" value="&lt;b&gt;&lt;font style=&quot;font-size: 18px;&quot;&gt;Registro de usuario&amp;nbsp;&lt;/font&gt;&lt;/b&gt;" style="text;html=1;align=center;verticalAlign=middle;resizable=0;points=[];autosize=1;strokeColor=none;fillColor=none;" vertex="1" parent="1">
          <mxGeometry x="466" y="5" width="200" height="40" as="geometry" />
        </mxCell>
        <mxCell id="1cbcMMZBRTgS8novLpQM-10" value="El usuario envía el formulario de registro&amp;nbsp;" style="ellipse;whiteSpace=wrap;html=1;" vertex="1" parent="1">
          <mxGeometry x="486" y="562" width="160" height="80" as="geometry" />
        </mxCell>
        <mxCell id="1cbcMMZBRTgS8novLpQM-12" value="El administrador valida la información del usuario&amp;nbsp;" style="ellipse;whiteSpace=wrap;html=1;" vertex="1" parent="1">
          <mxGeometry x="486" y="682" width="160" height="80" as="geometry" />
        </mxCell>
        <mxCell id="1cbcMMZBRTgS8novLpQM-13" value="El Usuario recibe una notificación de que su cuenta ha sido creada con éxito." style="ellipse;whiteSpace=wrap;html=1;" vertex="1" parent="1">
          <mxGeometry x="486" y="802" width="160" height="80" as="geometry" />
        </mxCell>
        <mxCell id="1cbcMMZBRTgS8novLpQM-14" value="El usuario accede al dashboard con su cuenta creada" style="ellipse;whiteSpace=wrap;html=1;" vertex="1" parent="1">
          <mxGeometry x="486" y="922" width="160" height="80" as="geometry" />
        </mxCell>
        <mxCell id="1cbcMMZBRTgS8novLpQM-15" value="Usuario" style="shape=umlActor;verticalLabelPosition=bottom;verticalAlign=top;html=1;outlineConnect=0;" vertex="1" parent="1">
          <mxGeometry x="46" y="382" width="150" height="240" as="geometry" />
        </mxCell>
        <mxCell id="1cbcMMZBRTgS8novLpQM-17" value="Administrador" style="shape=umlActor;verticalLabelPosition=bottom;verticalAlign=top;html=1;outlineConnect=0;" vertex="1" parent="1">
          <mxGeometry x="886" y="402" width="150" height="240" as="geometry" />
        </mxCell>
        <mxCell id="1cbcMMZBRTgS8novLpQM-18" value="" style="endArrow=classic;html=1;rounded=0;entryX=0;entryY=0.5;entryDx=0;entryDy=0;" edge="1" parent="1" source="1cbcMMZBRTgS8novLpQM-15" target="1cbcMMZBRTgS8novLpQM-2">
          <mxGeometry width="50" height="50" relative="1" as="geometry">
            <mxPoint x="196" y="392" as="sourcePoint" />
            <mxPoint x="446" y="152" as="targetPoint" />
          </mxGeometry>
        </mxCell>
        <mxCell id="1cbcMMZBRTgS8novLpQM-19" value="" style="endArrow=classic;html=1;rounded=0;entryX=0;entryY=0.5;entryDx=0;entryDy=0;" edge="1" parent="1" source="1cbcMMZBRTgS8novLpQM-15" target="1cbcMMZBRTgS8novLpQM-3">
          <mxGeometry width="50" height="50" relative="1" as="geometry">
            <mxPoint x="206" y="402" as="sourcePoint" />
            <mxPoint x="476" y="242" as="targetPoint" />
          </mxGeometry>
        </mxCell>
        <mxCell id="1cbcMMZBRTgS8novLpQM-20" value="" style="endArrow=classic;html=1;rounded=0;entryX=1;entryY=0.5;entryDx=0;entryDy=0;" edge="1" parent="1" target="1cbcMMZBRTgS8novLpQM-5">
          <mxGeometry width="50" height="50" relative="1" as="geometry">
            <mxPoint x="886" y="482" as="sourcePoint" />
            <mxPoint x="676" y="362" as="targetPoint" />
          </mxGeometry>
        </mxCell>
        <mxCell id="1cbcMMZBRTgS8novLpQM-21" value="" style="endArrow=classic;html=1;rounded=0;entryX=0;entryY=0.5;entryDx=0;entryDy=0;" edge="1" parent="1" target="1cbcMMZBRTgS8novLpQM-7">
          <mxGeometry width="50" height="50" relative="1" as="geometry">
            <mxPoint x="206" y="501" as="sourcePoint" />
            <mxPoint x="486" y="312" as="targetPoint" />
          </mxGeometry>
        </mxCell>
        <mxCell id="1cbcMMZBRTgS8novLpQM-22" value="" style="endArrow=classic;html=1;rounded=0;entryX=0;entryY=0.5;entryDx=0;entryDy=0;" edge="1" parent="1" target="1cbcMMZBRTgS8novLpQM-10">
          <mxGeometry width="50" height="50" relative="1" as="geometry">
            <mxPoint x="196" y="562" as="sourcePoint" />
            <mxPoint x="476" y="543" as="targetPoint" />
          </mxGeometry>
        </mxCell>
        <mxCell id="1cbcMMZBRTgS8novLpQM-23" value="" style="endArrow=classic;html=1;rounded=0;entryX=1;entryY=0.5;entryDx=0;entryDy=0;" edge="1" parent="1" source="1cbcMMZBRTgS8novLpQM-17" target="1cbcMMZBRTgS8novLpQM-12">
          <mxGeometry width="50" height="50" relative="1" as="geometry">
            <mxPoint x="866" y="632" as="sourcePoint" />
            <mxPoint x="626" y="512" as="targetPoint" />
          </mxGeometry>
        </mxCell>
        <mxCell id="1cbcMMZBRTgS8novLpQM-24" value="" style="endArrow=classic;html=1;rounded=0;entryX=1;entryY=0.5;entryDx=0;entryDy=0;" edge="1" parent="1" source="1cbcMMZBRTgS8novLpQM-15">
          <mxGeometry width="50" height="50" relative="1" as="geometry">
            <mxPoint x="196" y="642" as="sourcePoint" />
            <mxPoint x="486" y="844" as="targetPoint" />
          </mxGeometry>
        </mxCell>
        <mxCell id="1cbcMMZBRTgS8novLpQM-25" value="" style="endArrow=classic;html=1;rounded=0;entryX=1;entryY=0.5;entryDx=0;entryDy=0;" edge="1" parent="1">
          <mxGeometry width="50" height="50" relative="1" as="geometry">
            <mxPoint x="206" y="632" as="sourcePoint" />
            <mxPoint x="486" y="954" as="targetPoint" />
          </mxGeometry>
        </mxCell>
      </root>
    </mxGraphModel>
  </diagram>
</mxfile>
